<svg xmlns="http://www.w3.org/2000/svg" xmlns:xlink="http://www.w3.org/1999/xlink" width="500" zoomAndPan="magnify" viewBox="0 0 375 374.999991" height="500" preserveAspectRatio="xMidYMid meet" version="1.0"><defs><g/><clipPath id="4f739bc479"><path d="M 18.34375 80 L 145.84375 80 L 145.84375 317 L 18.34375 317 Z M 18.34375 80 " clip-rule="nonzero"/></clipPath></defs><g clip-path="url(#4f739bc479)"><path fill="#430f58" d="M 47.386719 134.523438 C 47.828125 134.15625 47.519531 133.660156 47.648438 133.238281 C 47.648438 133.175781 47.535156 133.0625 47.457031 132.949219 C 47.769531 131.960938 47.566406 131.628906 46.058594 127.023438 C 45.339844 124.8125 44.539062 124.59375 43.730469 118.476562 C 43.121094 113.871094 43.957031 111.375 43.398438 110.921875 C 42.671875 111.859375 43.53125 112.328125 41.996094 116.609375 C 41.808594 117.101562 41.953125 116.609375 41.242188 119.601562 C 40.363281 123.316406 38.964844 126.234375 37.746094 129.402344 C 36.953125 131.453125 34.539062 135.40625 32.683594 136.039062 C 30.246094 136.875 32.476562 132.300781 28.972656 127.910156 C 28.566406 127.417969 28.253906 126.816406 27.839844 126.316406 C 24.421875 122.21875 25.53125 123.972656 23.609375 120.886719 C 21.738281 117.894531 20.867188 116.796875 19.59375 110.515625 C 18.769531 106.4375 19.554688 106.753906 19.101562 105.8125 C 18.742188 105.0625 19.980469 104.328125 22.726562 101.367188 C 23.59375 100.417969 24.847656 100.445312 26.625 98.898438 C 27.992188 97.703125 30.832031 95.9375 33.042969 94.402344 C 36.867188 91.722656 34.746094 93.050781 36.8125 91.808594 C 42.703125 88.257812 42.988281 88.847656 44.449219 87.558594 C 45.886719 86.691406 47.367188 85.910156 48.894531 85.210938 C 51.566406 84.050781 51.492188 85.707031 54.785156 85.070312 C 59.625 84.121094 68.808594 77.910156 80.441406 81.988281 C 83.371094 83.023438 86.054688 84.503906 88.492188 86.429688 C 89.886719 87.582031 92.074219 89.09375 93.292969 90.296875 C 94.953125 91.90625 96.898438 93.003906 99.132812 93.589844 C 99.957031 93.773438 100.070312 93.589844 101 94.308594 C 102.488281 95.515625 103.871094 96.832031 105.15625 98.257812 C 106.0625 99.414062 107.25 100.148438 107.777344 100.765625 C 117.515625 112.238281 120.617188 116.222656 121.054688 116.769531 C 123.496094 119.671875 122.222656 117.09375 124.941406 122.652344 C 125.382812 123.550781 124.898438 123.863281 124.941406 124.445312 C 125.152344 126.691406 120.5 132.726562 120.5 132.730469 C 119.421875 134.46875 115.960938 137.667969 112.621094 139.277344 C 111.417969 139.851562 109.496094 140.679688 108.367188 141.253906 C 108.046875 141.445312 107.753906 141.675781 107.488281 141.945312 C 104.988281 143.726562 105.484375 145.601562 104.734375 146.195312 C 104.628906 146.320312 104.578125 146.46875 104.574219 146.628906 C 104.484375 147.253906 103.710938 147.964844 103.015625 147.480469 C 101.960938 146.605469 101.234375 145.515625 100.84375 144.207031 C 99.5 138.71875 98.867188 140.886719 98.089844 126.148438 C 98.089844 125.734375 97.976562 125.320312 97.96875 124.90625 C 97.875 121.886719 97.96875 121.695312 97.820312 120.550781 C 97.328125 120.707031 97.292969 121.082031 96.898438 122.332031 C 95.257812 127.472656 95.414062 127.15625 94.996094 127.824219 C 93.832031 129.757812 93.949219 130.515625 93.488281 131.332031 C 93.449219 131.402344 93.390625 131.492188 93.40625 131.554688 C 93.53125 132.019531 93.203125 132.378906 93.144531 132.785156 C 93.027344 133.171875 92.871094 133.542969 92.675781 133.894531 C 92.582031 134.171875 92.523438 134.457031 92.429688 134.730469 C 92.195312 135.371094 91.835938 136.210938 91.800781 136.378906 C 91.675781 137.015625 91.355469 138.757812 91.355469 138.765625 C 91.296875 142.382812 91.429688 142.503906 91.03125 143.207031 C 90.246094 144.601562 91.03125 145.632812 90.863281 145.902344 C 90.695312 146.175781 90.785156 146.511719 90.839844 146.824219 C 91.070312 148.199219 91.488281 149.515625 92.09375 150.773438 C 97.902344 162.328125 99.714844 161.140625 102.460938 171.089844 C 102.613281 171.652344 103.578125 175.21875 103.617188 175.9375 C 103.667969 176.757812 104.011719 177.523438 104.351562 179.546875 C 104.476562 180.492188 104.816406 181.351562 105.371094 182.125 C 105.898438 182.835938 106.296875 183.648438 106.777344 184.402344 C 112.5 193.402344 114.074219 194.539062 116.492188 199.582031 C 118.21875 203.164062 120.058594 207.773438 120.667969 208.867188 C 122.148438 211.542969 122.753906 215.722656 122.757812 215.726562 C 123.875 221.039062 123.851562 218.195312 124.570312 224.035156 C 125.125 228.5625 125.96875 227.863281 125.890625 230.65625 C 125.761719 235.03125 125.71875 236.363281 127.269531 237.765625 C 128.261719 238.71875 129.363281 239.535156 130.566406 240.207031 C 132.097656 240.957031 133.214844 242.109375 133.917969 243.664062 C 135.734375 247.839844 134.445312 248.179688 135.5 251.011719 C 136.695312 254.203125 138.886719 255.195312 139.679688 261.007812 C 140.585938 267.640625 133.902344 280.898438 132.457031 284.453125 C 129.703125 291.234375 129.632812 291.058594 128.175781 293.601562 C 127.40625 294.9375 127.851562 294.839844 127.007812 297.058594 C 125.917969 299.921875 125.84375 300.671875 126.511719 303.78125 C 126.554688 304.015625 126.660156 304.214844 126.832031 304.378906 C 127.003906 304.542969 127.210938 304.636719 127.445312 304.667969 C 129.273438 304.996094 135.542969 306.546875 141.523438 305.910156 C 142.289062 305.820312 143.03125 305.921875 143.746094 306.214844 C 145.878906 307.085938 146.113281 307.167969 145.742188 307.992188 C 143.644531 312.628906 135.003906 311.515625 128.703125 312.359375 C 127.46875 312.527344 127.046875 312.171875 126.785156 312.851562 C 125.648438 315.816406 122.757812 315.902344 108.757812 315.320312 C 107.878906 315.28125 108.332031 316.308594 106.550781 316.339844 C 99.488281 316.480469 97.359375 316.632812 88.0625 316.582031 C 87.046875 316.582031 87.121094 316.445312 83.964844 316.273438 C 83.035156 316.226562 82.097656 316.191406 81.171875 316.125 C 80.835938 316.097656 80.515625 316.011719 80.210938 315.863281 C 79.910156 315.714844 79.644531 315.515625 79.414062 315.269531 C 79.1875 315.019531 79.011719 314.742188 78.886719 314.425781 C 78.765625 314.113281 78.703125 313.789062 78.703125 313.449219 C 78.703125 313.214844 78.667969 312.980469 78.644531 312.691406 C 77.101562 312.570312 81.40625 312.691406 60.980469 312.574219 C 48.585938 312.496094 49.046875 312.304688 48.847656 312.945312 C 48.039062 315.59375 45.175781 314.71875 40.316406 314.699219 C 25.074219 314.640625 27.78125 314.667969 21.03125 313.972656 C 18.726562 313.730469 19.550781 312.335938 18.820312 311.46875 C 18.359375 310.945312 19.445312 310.285156 19.464844 309.609375 C 19.503906 308.316406 20.320312 307.664062 22.1875 304.996094 C 23.214844 303.515625 24.628906 301.3125 25.289062 300.472656 C 26.679688 298.683594 27.804688 299.71875 28.441406 298.074219 C 28.828125 297.085938 30.832031 294.675781 31.015625 287.652344 C 31.113281 283.78125 31.144531 284.800781 31.707031 282.308594 C 32.207031 278.382812 32.414062 274.441406 32.339844 270.484375 C 32.3125 268.695312 31.964844 264.242188 32.425781 262.582031 C 32.8125 261.210938 33.035156 255.867188 33.011719 255.074219 C 32.847656 249.949219 32.96875 251.414062 32.921875 249.84375 C 32.921875 249.136719 32.667969 248.078125 32.6875 247.898438 C 32.730469 246.910156 32.703125 245.921875 32.609375 244.9375 C 32.570312 243.53125 32.609375 242.117188 32.519531 240.714844 C 32.359375 237.996094 31.734375 234.933594 32.082031 232.359375 C 33.003906 225.488281 31.253906 227.207031 33.425781 220.746094 C 33.839844 219.519531 34.53125 219.039062 34.296875 217.984375 C 34.085938 216.996094 34.121094 215.6875 33.480469 213.628906 C 31.949219 209.34375 31.304688 204.929688 31.546875 200.386719 C 31.546875 200.386719 31.246094 197.628906 32.042969 185.933594 C 32.140625 184.527344 33.304688 178.648438 33.460938 178.21875 C 35.601562 172.207031 35.039062 173.816406 36.085938 171.308594 C 37.320312 168.375 37.132812 168.761719 37.183594 168.671875 C 42.382812 159.742188 43.03125 159.585938 43.210938 157.808594 C 43.371094 156.996094 43.578125 156.195312 43.828125 155.402344 C 44.035156 154.464844 44.964844 154.121094 46.535156 148.574219 C 46.785156 147.886719 46.984375 147.183594 47.132812 146.46875 C 47.238281 145.5625 47.34375 144.65625 47.53125 143.765625 C 47.71875 142.691406 47.695312 141.621094 47.460938 140.558594 C 47.398438 138.390625 47.722656 137.539062 47.460938 136.464844 C 47.390625 136.15625 47.402344 135.855469 47.492188 135.554688 C 47.589844 135.238281 47.230469 134.933594 47.519531 134.640625 Z M 50.699219 281.375 C 50.664062 281.480469 50.636719 281.589844 50.621094 281.703125 C 50.472656 286.011719 50.285156 285.679688 50.171875 286.726562 C 49.386719 293.992188 50.113281 294.578125 49.8125 295.679688 C 49.636719 296.472656 49.761719 297.21875 50.1875 297.910156 C 50.394531 298.339844 50.503906 298.371094 50.992188 298.285156 C 53 297.949219 53.042969 298.285156 54.265625 297.792969 C 57.515625 296.542969 58.113281 296.335938 59.40625 296.105469 C 60.300781 295.941406 60.09375 295.273438 60.71875 294.839844 C 61.675781 294.179688 60.71875 293.507812 61.035156 291.8125 C 61.179688 291.015625 60.792969 290.683594 58.191406 288.417969 C 56.523438 286.964844 57.242188 288.0625 55.105469 286.332031 C 54.265625 285.65625 53.34375 285.070312 52.671875 284.164062 C 50.5 281.242188 51.121094 281.277344 50.699219 281.375 Z M 83.085938 299.6875 C 83.351562 299.402344 83.292969 299.792969 83.808594 297.394531 C 83.882812 297.050781 83.675781 296.953125 82.398438 296.164062 C 82.238281 296.066406 82.070312 295.984375 81.8125 295.851562 C 81.796875 297.34375 82.410156 298.484375 83.085938 299.6875 Z M 83.085938 299.6875 " fill-opacity="1" fill-rule="nonzero"/></g><g fill="#430f58" fill-opacity="1"><g transform="translate(163.31907, 181.507355)"><g><path d="M 37.171875 -78.101562 L 18.523438 -78.101562 L 18.523438 -53.945312 L 31.039062 -53.945312 L 31.039062 -40.050781 L 18.523438 -40.050781 L 18.523438 0 L 5.007812 0 L 5.007812 -91.996094 L 37.171875 -91.996094 Z M 37.171875 -78.101562 "/></g></g></g><g fill="#430f58" fill-opacity="1"><g transform="translate(221.144292, 181.507355)"><g><path d="M 5.007812 -91.996094 L 18.523438 -91.996094 L 18.523438 0 L 5.007812 0 Z M 5.007812 -91.996094 "/></g></g></g><g fill="#430f58" fill-opacity="1"><g transform="translate(264.826117, 181.507355)"><g><path d="M 19.273438 -47.9375 L 18.148438 -52.191406 L 17.398438 -52.191406 L 17.398438 0 L 5.007812 0 L 5.007812 -91.996094 L 17.023438 -91.996094 L 30.164062 -44.058594 L 31.289062 -39.800781 L 32.042969 -39.800781 L 32.042969 -91.996094 L 44.433594 -91.996094 L 44.433594 0 L 32.417969 0 Z M 19.273438 -47.9375 "/></g></g></g><g fill="#430f58" fill-opacity="1"><g transform="translate(163.31907, 309.963911)"><g><path d="M 5.007812 0 L 5.007812 -91.996094 L 15.644531 -91.996094 C 28.160156 -91.996094 34.921875 -89.492188 38.550781 -82.480469 C 42.054688 -75.472656 42.554688 -63.957031 42.554688 -45.933594 C 42.554688 -27.910156 42.054688 -16.523438 38.550781 -9.511719 C 34.921875 -2.503906 28.160156 0 15.644531 0 Z M 18.523438 -13.519531 C 23.15625 -13.519531 25.785156 -14.019531 27.160156 -18.523438 C 27.785156 -20.652344 28.285156 -23.90625 28.410156 -28.285156 C 28.539062 -32.667969 28.539062 -38.550781 28.539062 -46.058594 C 28.539062 -53.570312 28.539062 -59.453125 28.410156 -63.832031 C 28.285156 -68.089844 27.785156 -71.34375 27.160156 -73.597656 C 25.785156 -77.976562 23.15625 -78.476562 18.523438 -78.476562 Z M 18.523438 -13.519531 "/></g></g></g><g fill="#430f58" fill-opacity="1"><g transform="translate(230.030855, 309.963911)"><g><path d="M 40.175781 -18.898438 C 40.050781 -15.144531 39.300781 -11.765625 37.925781 -8.886719 C 36.796875 -6.382812 35.046875 -4.003906 32.542969 -2.128906 C 30.039062 -0.125 26.660156 1 22.152344 1 C 17.648438 1 14.144531 -0.125 11.640625 -2.128906 C 9.136719 -4.003906 7.511719 -6.382812 6.382812 -8.886719 C 5.007812 -11.765625 4.253906 -15.144531 4.128906 -18.898438 L 4.128906 -73.09375 C 4.253906 -76.726562 5.007812 -80.105469 6.382812 -82.984375 C 7.511719 -85.484375 9.136719 -87.988281 11.640625 -89.867188 C 14.144531 -91.746094 17.648438 -92.996094 22.152344 -92.996094 C 26.660156 -92.996094 30.039062 -91.746094 32.542969 -89.867188 C 35.046875 -87.988281 36.796875 -85.484375 37.925781 -82.984375 C 39.300781 -80.105469 40.050781 -76.726562 40.175781 -73.09375 Z M 26.660156 -73.09375 C 26.660156 -75.597656 26.160156 -77.351562 24.90625 -78.851562 C 24.28125 -79.476562 23.28125 -79.855469 22.152344 -79.855469 C 19.777344 -79.855469 18.648438 -78.101562 18.148438 -76.472656 C 17.773438 -75.472656 17.648438 -74.347656 17.648438 -73.09375 L 17.648438 -18.898438 C 17.648438 -16.269531 18.273438 -14.519531 19.527344 -13.140625 C 20.152344 -12.515625 21.027344 -12.140625 22.152344 -12.140625 C 24.53125 -12.140625 25.660156 -13.644531 26.160156 -15.519531 C 26.535156 -16.394531 26.660156 -17.523438 26.660156 -18.898438 Z M 26.660156 -73.09375 "/></g></g></g><g fill="#430f58" fill-opacity="1"><g transform="translate(294.48971, 309.963911)"><g><path d="M 26.660156 -58.953125 L 26.660156 -73.09375 C 26.660156 -75.597656 26.160156 -77.351562 24.90625 -78.851562 C 24.28125 -79.476562 23.28125 -79.855469 22.152344 -79.855469 C 19.777344 -79.855469 18.648438 -78.101562 18.148438 -76.472656 C 17.773438 -75.472656 17.648438 -74.347656 17.648438 -73.09375 L 17.648438 -17.773438 C 17.648438 -15.144531 18.273438 -13.390625 19.527344 -12.015625 C 20.152344 -11.390625 21.027344 -11.015625 22.152344 -11.015625 C 24.53125 -11.015625 25.660156 -12.515625 26.160156 -14.394531 C 26.535156 -15.269531 26.660156 -16.394531 26.660156 -17.773438 L 26.660156 -34.417969 L 21.277344 -34.417969 L 21.277344 -45.808594 L 40.175781 -45.808594 L 40.175781 0 L 32.167969 0 L 30.539062 -4.378906 C 28.035156 -1.25 24.40625 1 20.027344 1 C 15.644531 1 12.640625 -0.125 10.386719 -2.128906 C 8.136719 -4.003906 6.632812 -6.382812 5.632812 -8.886719 C 4.507812 -11.765625 4.003906 -15.144531 4.128906 -18.898438 L 4.128906 -73.09375 C 4.253906 -76.726562 5.007812 -80.105469 6.382812 -82.984375 C 7.511719 -85.484375 9.136719 -87.988281 11.640625 -89.867188 C 14.144531 -91.746094 17.648438 -92.996094 22.152344 -92.996094 C 26.660156 -92.996094 30.039062 -91.746094 32.542969 -89.867188 C 35.046875 -87.988281 36.796875 -85.484375 37.925781 -82.984375 C 39.300781 -80.105469 40.050781 -76.726562 40.175781 -73.09375 L 40.175781 -58.953125 Z M 26.660156 -58.953125 "/></g></g></g></svg>